<svg width="25" height="25" viewBox="0 0 25 25" fill="none" xmlns="http://www.w3.org/2000/svg">
<path d="M24.7025 8.91507C24.626 8.68982 24.4852 8.4919 24.2976 8.34574C24.1099 8.19958 23.8835 8.11158 23.6464 8.0926L16.7102 7.54145L13.7087 0.897233C13.6131 0.683237 13.4576 0.501478 13.261 0.373893C13.0644 0.246309 12.8351 0.178351 12.6007 0.178223C12.3663 0.178094 12.1369 0.2458 11.9402 0.373168C11.7434 0.500537 11.5877 0.682125 11.4919 0.896017L8.49039 7.54145L1.55418 8.0926C1.32113 8.11106 1.09834 8.19627 0.912451 8.33804C0.726565 8.47981 0.585457 8.67212 0.506009 8.89199C0.426561 9.11185 0.412137 9.34994 0.464462 9.57779C0.516787 9.80563 0.633647 10.0136 0.801059 10.1767L5.92688 15.1736L4.11404 23.0235C4.059 23.2611 4.07664 23.5098 4.16468 23.7373C4.25272 23.9647 4.40709 24.1605 4.60777 24.2991C4.80844 24.4378 5.04615 24.5129 5.29005 24.5147C5.53395 24.5166 5.77278 24.4451 5.97554 24.3096L12.6003 19.8931L19.225 24.3096C19.4323 24.4471 19.6767 24.518 19.9254 24.5125C20.1741 24.5071 20.4152 24.4256 20.6162 24.279C20.8172 24.1325 20.9685 23.9279 21.0498 23.6928C21.131 23.4577 21.1383 23.2033 21.0707 22.9639L18.8454 15.1772L24.3642 10.2108C24.7256 9.88475 24.8582 9.37618 24.7025 8.91507Z" fill="#F3CD03"/>
</svg>
